<svg width="16" height="16" viewBox="0 0 16 16" fill="none" xmlns="http://www.w3.org/2000/svg">
<g clip-path="url(#clip0_8_356)">
<path d="M15.3005 6.39996C15.1755 6.27498 15.0059 6.20477 14.8292 6.20477C14.6524 6.20477 14.4829 6.27498 14.3578 6.39996L7.0965 13.6926C6.78698 14.0022 6.41951 14.2478 6.01508 14.4153C5.61065 14.5829 5.17717 14.6691 4.73941 14.6692C3.8553 14.6692 3.00737 14.3181 2.38217 13.693C1.75697 13.0678 1.4057 12.22 1.40563 11.3359C1.40557 10.4518 1.75672 9.60383 2.38184 8.97863L9.4145 1.91729C9.79056 1.54722 10.2976 1.34074 10.8252 1.34283C11.3528 1.34491 11.8582 1.5554 12.2314 1.92843C12.6045 2.30147 12.8151 2.80683 12.8173 3.33443C12.8195 3.86204 12.6132 4.36915 12.2432 4.74529L5.2105 11.8066C5.08367 11.9281 4.91481 11.996 4.73917 11.996C4.56353 11.996 4.39467 11.9281 4.26784 11.8066C4.14286 11.6816 4.07265 11.5121 4.07265 11.3353C4.07265 11.1585 4.14286 10.989 4.26784 10.864L10.5292 4.57396C10.6506 4.44823 10.7178 4.27982 10.7163 4.10503C10.7148 3.93023 10.6447 3.76302 10.521 3.63942C10.3974 3.51581 10.2302 3.4457 10.0554 3.44418C9.88064 3.44266 9.71224 3.50986 9.5865 3.63129L3.32517 9.92129C3.13942 10.107 2.99207 10.3275 2.89154 10.5702C2.79101 10.8129 2.73926 11.073 2.73926 11.3356C2.73926 11.5983 2.79101 11.8584 2.89154 12.1011C2.99207 12.3437 3.13942 12.5642 3.32517 12.75C3.70625 13.1136 4.21276 13.3165 4.7395 13.3165C5.26625 13.3165 5.77276 13.1136 6.15384 12.75L13.1858 5.68796C13.7978 5.06016 14.1379 4.21653 14.1322 3.33981C14.1266 2.46309 13.7758 1.62388 13.1558 1.00398C12.5358 0.384072 11.6966 0.0333909 10.8199 0.0278975C9.94313 0.0224042 9.09955 0.362542 8.47184 0.974627L1.43917 8.03596C0.563956 8.91117 0.0722656 10.0982 0.0722656 11.336C0.0722656 12.5737 0.563956 13.7607 1.43917 14.636C2.31438 15.5112 3.50143 16.0029 4.73917 16.0029C5.97691 16.0029 7.16396 15.5112 8.03917 14.636L15.3005 7.34529C15.3628 7.28334 15.4122 7.20969 15.4459 7.12858C15.4797 7.04746 15.497 6.96048 15.497 6.87263C15.497 6.78478 15.4797 6.6978 15.4459 6.61668C15.4122 6.53556 15.3628 6.46191 15.3005 6.39996Z" fill="#8E8E8E"/>
</g>
<defs>
<clipPath id="clip0_8_356">
<rect width="16" height="16" fill="white"/>
</clipPath>
</defs>
</svg>
