<svg xmlns="http://www.w3.org/2000/svg" xmlns:xlink="http://www.w3.org/1999/xlink" width="215.269" height="66.457" viewBox="0 0 215.269 66.457"><defs><clipPath id="a"><rect width="215.269" height="66.457" fill="#bfac8c"/></clipPath></defs><path d="M0,52.642H23.3V25.307L0,2Z" transform="translate(0 -1.42)" fill="#bfac8c"/><path d="M112.239,2V52.642h-23.3V25.307Z" transform="translate(-63.007 -1.42)" fill="#bfac8c"/><g clip-path="url(#a)"><path d="M233.875,14.728a12.293,12.293,0,0,1-3.494,8.778,11.829,11.829,0,0,1-2.6,2.027H196.165V2.325h25.486A11.871,11.871,0,0,1,230.464,6a12.361,12.361,0,0,1,3.411,8.73" transform="translate(-138.966 -1.647)" fill="#bfac8c"/><path d="M236.291,101.913a12.825,12.825,0,0,1-3.632,9.177,12.489,12.489,0,0,1-9.136,3.757H196.166V89.814h31.795a12.16,12.16,0,0,1,4.693,3,12.733,12.733,0,0,1,3.638,9.1" transform="translate(-138.967 -63.625)" fill="#bfac8c"/><path d="M400.344,26.191A26.187,26.187,0,1,1,374.159,0h.1V33.854h5.272V31.218h-2.636V21.463h23.024a25.75,25.75,0,0,1,.429,4.729" transform="translate(-246.506 -0.001)" fill="#bfac8c"/><path d="M561.828,47.474l.234.2.7.756c.452.489.9.976,1.359,1.457l.108.115.109-.115c.705-.745,1.4-1.492,2.053-2.208l.24-.209v5.015h2.183v-9.67h-.25l-4.335,4.373-4.336-4.373h-.25v9.67h2.183Z" transform="translate(-396.46 -30.334)" fill="#bfac8c"/><path d="M595.652,50.86h3.256l.743,1.628h2.4L597.458,42.9l-.041-.085h-.265l-4.617,9.67h2.4Zm.733-1.683c.235-.544.5-1.192.717-1.726l.187-.456c.218.588.509,1.3.9,2.182Z" transform="translate(-419.761 -30.333)" fill="#bfac8c"/><path d="M627.368,48.54c1.32.48,1.722.774,1.722,1.257,0,.351-.333.578-1,.675a3.185,3.185,0,0,1-.78.048,5.886,5.886,0,0,1-2.261-.65l-.218-.113V52l.089.039a7.416,7.416,0,0,0,2.8.538c2.245,0,3.585-1.053,3.585-2.816,0-1.619-1.037-2.347-2.712-3-1.21-.457-1.66-.794-1.66-1.245,0-.494.555-.813,1.415-.813a4.583,4.583,0,0,1,2.181.543l.225.134V43.2l-.088-.039a6.52,6.52,0,0,0-2.471-.474c-2.091,0-3.5,1.142-3.5,2.841s1.019,2.412,2.662,3.012" transform="translate(-442.55 -30.24)" fill="#bfac8c"/><path d="M650.1,52.831h2.273V45.254h2.59V43.3H647.52v1.952H650.1Z" transform="translate(-458.712 -30.676)" fill="#bfac8c"/><path d="M681.863,50.879h-4.154V48.947h3.359V47.059h-3.359v-1.8h3.961V43.3h-6.234v9.529h6.427Z" transform="translate(-478.488 -30.676)" fill="#bfac8c"/><path d="M708.232,52.832l-1.978-3.64a2.835,2.835,0,0,0,1.7-2.7c0-2-1.388-3.187-3.714-3.187h-3.393v9.529h2.234V49.6h1.092l1.628,3.231Zm-2.567-6.341a1.166,1.166,0,0,1-1.326,1.223h-1.26V45.255h1.21c.874,0,1.377.451,1.377,1.235" transform="translate(-496.488 -30.676)" fill="#bfac8c"/><path d="M566.713,93.358a2.443,2.443,0,0,0-1.323-2.17,2.071,2.071,0,0,0,.977-1.779c0-1.69-1.374-2.739-3.585-2.739h-3.137V96.2h3.405c2.293,0,3.662-1.062,3.662-2.841m-3.572.966h-1.312V92.148h1.44a1.026,1.026,0,0,1,1.121,1.082,1.1,1.1,0,0,1-1.248,1.094m.422-3.879a2.648,2.648,0,0,1-.7.072h-1.03V88.546h1.081c.737,0,1.159.376,1.159,1.03a.862.862,0,0,1-.507.87" transform="translate(-396.46 -61.399)" fill="#bfac8c"/><path d="M591.04,96.379c2.472,0,4.007-1.413,4.007-3.687V86.671h-2.272V92.5a1.736,1.736,0,1,1-3.471,0V86.671h-2.272v6.021c0,2.275,1.535,3.687,4.008,3.687" transform="translate(-415.862 -61.399)" fill="#bfac8c"/><rect width="2.273" height="9.529" transform="translate(180.63 25.272)" fill="#bfac8c"/><path d="M634.936,86.671h-2.273V96.2h5.824V94.247h-3.551Z" transform="translate(-448.187 -61.399)" fill="#bfac8c"/><path d="M658.489,86.671h-3.1V96.2h3.124c3.141,0,5.252-1.915,5.252-4.764s-2.121-4.764-5.277-4.764m-.825,1.952h.8a2.819,2.819,0,1,1,.026,5.625h-.825Z" transform="translate(-464.288 -61.399)" fill="#bfac8c"/><path d="M693.759,88.623V86.671h-6.234V96.2h6.427V94.248H689.8V92.316h3.359V90.428H689.8v-1.8Z" transform="translate(-487.052 -61.399)" fill="#bfac8c"/><path d="M718.344,92.559a2.836,2.836,0,0,0,1.7-2.7c0-2-1.388-3.187-3.714-3.187h-3.393V96.2h2.235V92.969h1.092l1.628,3.231h2.433Zm-.589-2.7a1.166,1.166,0,0,1-1.326,1.222h-1.26V88.623h1.209c.874,0,1.377.45,1.377,1.236" transform="translate(-505.053 -61.399)" fill="#bfac8c"/><path d="M563.839,137.074a4.513,4.513,0,0,1-1.107.141,2.715,2.715,0,0,1-2.825-2.851,2.753,2.753,0,0,1,2.915-2.838,6.211,6.211,0,0,1,2.706.627l.213.1V130.1l-.086-.04a7,7,0,0,0-2.961-.642,4.946,4.946,0,1,0,.039,9.888,7.45,7.45,0,0,0,3.209-.721l.081-.042v-3.971h-2.182Z" transform="translate(-395.026 -91.684)" fill="#bfac8c"/><path d="M597.524,133.224c0-2-1.389-3.187-3.714-3.187h-3.393v9.529h2.235v-3.231h1.092l1.628,3.231H597.8l-1.977-3.64a2.837,2.837,0,0,0,1.7-2.7m-2.286,0a1.166,1.166,0,0,1-1.326,1.223h-1.261v-2.458h1.21c.874,0,1.377.45,1.377,1.235" transform="translate(-418.26 -92.12)" fill="#bfac8c"/><path d="M621.643,129.421a4.944,4.944,0,1,0,4.983,4.944,4.854,4.854,0,0,0-4.983-4.944m0,7.782a2.842,2.842,0,1,1,2.7-2.838,2.709,2.709,0,0,1-2.7,2.838" transform="translate(-436.851 -91.684)" fill="#bfac8c"/><path d="M659.553,135.865a1.736,1.736,0,1,1-3.471,0v-5.829h-2.272v6.021c0,2.275,1.535,3.687,4.008,3.687s4.008-1.413,4.008-3.687v-6.021h-2.272Z" transform="translate(-463.167 -92.119)" fill="#bfac8c"/><path d="M689.4,130.036h-3.149v9.529h2.273v-3.154h.876c2.317,0,3.7-1.191,3.7-3.188s-1.383-3.187-3.7-3.187m.1,4.41h-.979v-2.458h.927a1.18,1.18,0,0,1,1.351,1.235,1.151,1.151,0,0,1-1.3,1.223" transform="translate(-486.15 -92.119)" fill="#bfac8c"/><path d="M0,204.758H2.814a3.348,3.348,0,1,1,0,6.676H0ZM2.756,210.6a2.516,2.516,0,1,0,0-5.017H.954V210.6Z" transform="translate(0 -145.053)" fill="#bfac8c"/><path d="M53.783,210.6v.83H48.938v-6.676h4.711v.83H49.891v2.051h3.347v.811H49.891V210.6Z" transform="translate(-34.668 -145.054)" fill="#bfac8c"/><path d="M95.788,204.758l-2.928,6.676h-.944l-2.937-6.676h1.03l2.4,5.484,2.423-5.484Z" transform="translate(-63.033 -145.054)" fill="#bfac8c"/><path d="M142.007,210.6v.83h-4.845v-6.676h4.711v.83h-3.758v2.051h3.347v.811h-3.347V210.6Z" transform="translate(-97.168 -145.054)" fill="#bfac8c"/><path d="M181,204.758h.954V210.6h3.615v.83H181Z" transform="translate(-128.221 -145.054)" fill="#bfac8c"/><path d="M220.057,207.91a3.551,3.551,0,1,1,3.557,3.414,3.393,3.393,0,0,1-3.557-3.414m6.142,0a2.594,2.594,0,1,0-2.585,2.566,2.507,2.507,0,0,0,2.585-2.566" transform="translate(-155.891 -144.868)" fill="#bfac8c"/><path d="M276.7,207.085c0,1.45-1.049,2.327-2.785,2.327h-1.65v2.022h-.954v-6.676h2.6c1.736,0,2.785.877,2.785,2.327m-.953,0c0-.953-.639-1.5-1.86-1.5H272.27v2.995h1.621c1.221,0,1.86-.544,1.86-1.5" transform="translate(-192.204 -145.053)" fill="#bfac8c"/><path d="M322.714,211.434l-.01-4.864-2.413,4.054h-.439L317.44,206.6v4.835h-.916v-6.676h.782l2.785,4.692,2.747-4.692h.782l.01,6.676Z" transform="translate(-224.23 -145.054)" fill="#bfac8c"/><path d="M374.526,210.6v.83h-4.845v-6.676h4.711v.83h-3.758v2.051h3.347v.811h-3.347V210.6Z" transform="translate(-261.887 -145.054)" fill="#bfac8c"/><path d="M419.257,204.758v6.676h-.782l-4.006-4.978v4.978h-.954v-6.676h.782l4.006,4.979v-4.979Z" transform="translate(-292.94 -145.054)" fill="#bfac8c"/><path d="M460.981,205.588h-2.289v-.83h5.522v.83h-2.289v5.846h-.944Z" transform="translate(-324.944 -145.053)" fill="#bfac8c"/><path d="M500.727,210.485l.353-.744a3.437,3.437,0,0,0,2.2.772c1.154,0,1.65-.448,1.65-1.03,0-1.631-4.044-.6-4.044-3.081,0-1.03.8-1.908,2.556-1.908a3.927,3.927,0,0,1,2.146.592l-.315.763a3.449,3.449,0,0,0-1.831-.544c-1.135,0-1.621.477-1.621,1.059,0,1.631,4.044.61,4.044,3.062,0,1.02-.82,1.9-2.585,1.9a3.962,3.962,0,0,1-2.556-.839" transform="translate(-354.722 -144.868)" fill="#bfac8c"/></g></svg>