<svg xmlns="http://www.w3.org/2000/svg" xmlns:xlink="http://www.w3.org/1999/xlink" width="152.731" height="47.151" viewBox="0 0 152.731 47.151"><defs><clipPath id="a"><rect width="152.731" height="47.151" fill="#bfac8c"/></clipPath></defs><path d="M0,37.931H16.53V18.537L0,2Z" transform="translate(0 -1.59)" fill="#bfac8c"/><path d="M105.471,2V37.931H88.941V18.537Z" transform="translate(-70.541 -1.59)" fill="#bfac8c"/><g clip-path="url(#a)"><path d="M222.92,11.125a8.722,8.722,0,0,1-2.479,6.228,8.392,8.392,0,0,1-1.845,1.438H196.165V2.325h18.082A8.422,8.422,0,0,1,220.5,4.931a8.77,8.77,0,0,1,2.42,6.194" transform="translate(-155.583 -1.844)" fill="#bfac8c"/><path d="M224.634,98.4a9.1,9.1,0,0,1-2.577,6.511,8.861,8.861,0,0,1-6.482,2.665h-19.41V89.814h22.558a8.628,8.628,0,0,1,3.33,2.128,9.034,9.034,0,0,1,2.581,6.456" transform="translate(-155.584 -71.234)" fill="#bfac8c"/><path d="M385.128,18.583A18.58,18.58,0,1,1,366.551,0h.068V24.019h3.74v-1.87h-1.87V15.228h16.335a18.271,18.271,0,0,1,.3,3.355" transform="translate(-275.982 -0.001)" fill="#bfac8c"/><path d="M561.194,46.122l.166.144.5.536c.321.347.641.693.964,1.034l.077.081.077-.081c.5-.529.994-1.059,1.457-1.566l.171-.148V49.68h1.549V42.819h-.177l-3.076,3.1-3.076-3.1h-.177V49.68h1.549Z" transform="translate(-443.867 -33.961)" fill="#bfac8c"/><path d="M594.747,48.524h2.31l.527,1.155h1.7l-3.256-6.8-.029-.06h-.188l-3.276,6.861h1.7Zm.52-1.194c.167-.386.355-.846.508-1.224l.133-.324c.155.417.361.919.636,1.548Z" transform="translate(-469.954 -33.96)" fill="#bfac8c"/><path d="M626.595,46.84c.936.341,1.222.549,1.222.892,0,.249-.236.41-.708.479a2.26,2.26,0,0,1-.554.034,4.176,4.176,0,0,1-1.6-.461l-.155-.08v1.589l.063.028a5.261,5.261,0,0,0,1.989.382c1.593,0,2.544-.747,2.544-2,0-1.149-.736-1.665-1.924-2.127-.858-.324-1.178-.564-1.178-.883,0-.35.394-.577,1-.577a3.252,3.252,0,0,1,1.547.385l.16.1V43.051l-.063-.028a4.626,4.626,0,0,0-1.753-.336c-1.483,0-2.48.81-2.48,2.016s.723,1.711,1.889,2.137" transform="translate(-495.469 -33.856)" fill="#bfac8c"/><path d="M649.348,50.063h1.613V44.687H652.8V43.3H647.52v1.385h1.828Z" transform="translate(-513.563 -34.344)" fill="#bfac8c"/><path d="M680,48.678h-2.947V47.307h2.383V45.968h-2.383v-1.28h2.81V43.3h-4.423v6.761H680Z" transform="translate(-535.704 -34.344)" fill="#bfac8c"/><path d="M706.086,50.064l-1.4-2.583a2.011,2.011,0,0,0,1.2-1.916c0-1.416-.985-2.261-2.635-2.261h-2.407v6.761h1.585V47.771h.775l1.155,2.292Zm-1.821-4.5a.827.827,0,0,1-.94.867h-.894V44.688h.858c.62,0,.977.32.977.877" transform="translate(-555.856 -34.345)" fill="#bfac8c"/><path d="M564.659,91.416a1.733,1.733,0,0,0-.939-1.54,1.469,1.469,0,0,0,.693-1.262c0-1.2-.975-1.943-2.543-1.943h-2.225v6.76h2.416c1.627,0,2.6-.754,2.6-2.016m-2.534.685h-.931V90.557h1.022a.728.728,0,0,1,.8.768.784.784,0,0,1-.886.776m.3-2.752a1.879,1.879,0,0,1-.5.051h-.731V88h.767c.523,0,.822.267.822.731a.612.612,0,0,1-.359.617" transform="translate(-443.867 -68.741)" fill="#bfac8c"/><path d="M589.876,93.559a2.538,2.538,0,0,0,2.843-2.616V86.671h-1.612v4.135a1.232,1.232,0,1,1-2.463,0V86.671h-1.612v4.272a2.539,2.539,0,0,0,2.844,2.616" transform="translate(-465.588 -68.741)" fill="#bfac8c"/><rect width="1.613" height="6.761" transform="translate(128.155 17.93)" fill="#bfac8c"/><path d="M634.275,86.671h-1.613v6.761h4.132V92.046h-2.52Z" transform="translate(-501.779 -68.741)" fill="#bfac8c"/><path d="M657.589,86.671h-2.2v6.76h2.216c2.229,0,3.726-1.359,3.726-3.38s-1.5-3.38-3.744-3.38M657,88.056h.567a2,2,0,1,1,.018,3.991H657Z" transform="translate(-519.805 -68.741)" fill="#bfac8c"/><path d="M691.948,88.056V86.671h-4.423v6.76h4.56V92.047h-2.947V90.676h2.383v-1.34h-2.383v-1.28Z" transform="translate(-545.291 -68.741)" fill="#bfac8c"/><path d="M716.773,90.849a2.012,2.012,0,0,0,1.2-1.916c0-1.416-.985-2.261-2.635-2.261h-2.407v6.76h1.585V91.139h.775l1.155,2.292h1.726Zm-.418-1.916a.827.827,0,0,1-.94.867h-.894V88.056h.858c.62,0,.977.319.977.877" transform="translate(-565.445 -68.741)" fill="#bfac8c"/><path d="M562.033,134.851a3.2,3.2,0,0,1-.786.1,1.927,1.927,0,0,1-2-2.023,1.953,1.953,0,0,1,2.068-2.013,4.407,4.407,0,0,1,1.92.445l.151.071V129.9l-.061-.028a4.963,4.963,0,0,0-2.1-.455,3.509,3.509,0,1,0,.027,7.015,5.286,5.286,0,0,0,2.277-.512l.057-.03v-2.817h-1.548Z" transform="translate(-442.262 -102.647)" fill="#bfac8c"/><path d="M595.459,132.3c0-1.416-.985-2.261-2.635-2.261h-2.407V136.8H592v-2.292h.775l1.155,2.292h1.726l-1.4-2.583a2.013,2.013,0,0,0,1.2-1.917m-1.622,0a.827.827,0,0,1-.94.868H592v-1.744h.858c.62,0,.977.319.977.876" transform="translate(-468.273 -103.135)" fill="#bfac8c"/><path d="M620.2,129.421a3.508,3.508,0,1,0,3.535,3.507,3.444,3.444,0,0,0-3.535-3.507m0,5.521a2.016,2.016,0,1,1,1.914-2.014,1.922,1.922,0,0,1-1.914,2.014" transform="translate(-489.088 -102.647)" fill="#bfac8c"/><path d="M657.884,134.171a1.232,1.232,0,1,1-2.463,0v-4.135h-1.612v4.272a2.853,2.853,0,0,0,5.687,0v-4.272h-1.612Z" transform="translate(-518.551 -103.135)" fill="#bfac8c"/><path d="M688.485,130.036h-2.234V136.8h1.613v-2.238h.622c1.644,0,2.625-.845,2.625-2.262s-.981-2.261-2.625-2.261m.073,3.129h-.694v-1.744h.658a.838.838,0,0,1,.959.876.817.817,0,0,1-.922.868" transform="translate(-544.281 -103.135)" fill="#bfac8c"/><path d="M0,204.758H2a2.375,2.375,0,1,1,0,4.737H0Zm1.956,4.148a1.785,1.785,0,1,0,0-3.559H.677v3.559Z" transform="translate(0 -162.398)" fill="#bfac8c"/><path d="M52.375,208.906v.589H48.938v-4.737H52.28v.589H49.614V206.8h2.375v.575H49.614v1.529Z" transform="translate(-38.814 -162.399)" fill="#bfac8c"/><path d="M93.81,204.758l-2.077,4.737h-.67l-2.084-4.737h.731l1.705,3.891,1.719-3.891Z" transform="translate(-70.57 -162.398)" fill="#bfac8c"/><path d="M140.6,208.906v.589h-3.437v-4.737h3.343v.589h-2.666V206.8h2.375v.575h-2.375v1.529Z" transform="translate(-108.787 -162.399)" fill="#bfac8c"/><path d="M181,204.758h.677v4.148h2.565v.589H181Z" transform="translate(-143.553 -162.398)" fill="#bfac8c"/><path d="M220.057,206.919a2.519,2.519,0,1,1,2.524,2.423,2.407,2.407,0,0,1-2.524-2.423m4.358,0a1.841,1.841,0,1,0-1.834,1.82,1.778,1.778,0,0,0,1.834-1.82" transform="translate(-174.532 -162.19)" fill="#bfac8c"/><path d="M275.139,206.409c0,1.029-.744,1.651-1.976,1.651h-1.171v1.434h-.677v-4.737h1.847c1.231,0,1.976.622,1.976,1.651m-.676,0c0-.676-.453-1.062-1.32-1.062h-1.15v2.125h1.15c.866,0,1.32-.386,1.32-1.062" transform="translate(-215.187 -162.398)" fill="#bfac8c"/><path d="M320.916,209.495l-.007-3.451L319.2,208.92h-.311l-1.712-2.856v3.431h-.65v-4.737h.555l1.976,3.329L321,204.758h.555l.007,4.737Z" transform="translate(-251.042 -162.398)" fill="#bfac8c"/><path d="M373.118,208.906v.589h-3.437v-4.737h3.343v.589h-2.666V206.8h2.375v.575h-2.375v1.529Z" transform="translate(-293.202 -162.399)" fill="#bfac8c"/><path d="M417.589,204.758v4.737h-.555l-2.842-3.532v3.532h-.677v-4.737h.555l2.842,3.532v-3.532Z" transform="translate(-327.968 -162.398)" fill="#bfac8c"/><path d="M460.316,205.347h-1.624v-.589h3.918v.589h-1.624v4.148h-.67Z" transform="translate(-363.799 -162.398)" fill="#bfac8c"/><path d="M500.727,208.745l.25-.528a2.439,2.439,0,0,0,1.563.548c.819,0,1.171-.318,1.171-.731,0-1.157-2.869-.426-2.869-2.186,0-.731.568-1.353,1.813-1.353a2.786,2.786,0,0,1,1.523.42l-.223.541a2.447,2.447,0,0,0-1.3-.386c-.805,0-1.15.338-1.15.751,0,1.157,2.869.433,2.869,2.172,0,.724-.582,1.347-1.834,1.347a2.811,2.811,0,0,1-1.813-.6" transform="translate(-397.138 -162.19)" fill="#bfac8c"/></g></svg>