<svg width="20" height="20" viewBox="0 0 20 20" fill="none" xmlns="http://www.w3.org/2000/svg">
<path fill-rule="evenodd" clip-rule="evenodd" d="M10 -0.00106812C4.3675 -0.00106812 0 4.12643 0 9.69893C0 12.6139 1.195 15.1339 3.14 16.8739C3.3025 17.0189 3.4025 17.2239 3.4075 17.4439L3.4625 19.2239C3.48 19.7914 4.065 20.1614 4.585 19.9314L6.57 19.0564C6.7375 18.9814 6.9275 18.9689 7.105 19.0164C8.0175 19.2664 8.9875 19.4014 10 19.4014C15.6325 19.4014 20 15.2739 20 9.70143C20 4.12893 15.6325 -0.00106812 10 -0.00106812Z" fill="#D3CCF3"/>
<path fill-rule="evenodd" clip-rule="evenodd" d="M3.99544 12.5366L6.93293 7.87661C7.40043 7.13411 8.40043 6.95161 9.10293 7.47661L11.4404 9.22911C11.6554 9.38911 11.9504 9.38911 12.1629 9.22661L15.3179 6.83161C15.7379 6.51161 16.2879 7.01661 16.0079 7.46411L13.0679 12.1216C12.6004 12.8641 11.6004 13.0466 10.8979 12.5216L8.56043 10.7691C8.34543 10.6091 8.05043 10.6091 7.83793 10.7716L4.68294 13.1666C4.26294 13.4866 3.71294 12.9841 3.99544 12.5366Z" fill="white"/>
</svg>
