<svg width="16" height="16" viewBox="0 0 16 16" fill="none" xmlns="http://www.w3.org/2000/svg">
<g clip-path="url(#clip0_8_362)">
<path d="M8 0C5.87897 0.00229405 3.84547 0.845885 2.34568 2.34568C0.845885 3.84547 0.00229405 5.87897 0 8C0.4 18.6 15.6 18.5953 16 8C15.9977 5.87897 15.1541 3.84547 13.6543 2.34568C12.1545 0.845885 10.121 0.00229405 8 0ZM8 14.6667C6.23249 14.6647 4.53792 13.9617 3.2881 12.7119C2.03828 11.4621 1.33527 9.76751 1.33333 8C1.66667 -0.832 14.3333 -0.829334 14.6667 8C14.6647 9.76751 13.9617 11.4621 12.7119 12.7119C11.4621 13.9617 9.76751 14.6647 8 14.6667ZM4.66667 6.33333C4.66667 6.06812 4.77202 5.81376 4.95956 5.62623C5.1471 5.43869 5.40145 5.33333 5.66667 5.33333C5.93188 5.33333 6.18624 5.43869 6.37377 5.62623C6.56131 5.81376 6.66667 6.06812 6.66667 6.33333C6.66667 6.59855 6.56131 6.8529 6.37377 7.04044C6.18624 7.22798 5.93188 7.33333 5.66667 7.33333C5.40145 7.33333 5.1471 7.22798 4.95956 7.04044C4.77202 6.8529 4.66667 6.59855 4.66667 6.33333ZM9.33333 6.33333C9.33333 6.06812 9.43869 5.81376 9.62623 5.62623C9.81376 5.43869 10.0681 5.33333 10.3333 5.33333C10.5985 5.33333 10.8529 5.43869 11.0404 5.62623C11.228 5.81376 11.3333 6.06812 11.3333 6.33333C11.3333 6.59855 11.228 6.8529 11.0404 7.04044C10.8529 7.22798 10.5985 7.33333 10.3333 7.33333C10.0681 7.33333 9.81376 7.22798 9.62623 7.04044C9.43869 6.8529 9.33333 6.59855 9.33333 6.33333ZM11.8947 10.3613C11.503 11.0519 10.9374 11.628 10.2542 12.0324C9.57098 12.4368 8.79386 12.6555 8 12.6667C7.20559 12.6556 6.42788 12.437 5.744 12.0326C5.06013 11.6282 4.49385 11.0521 4.10133 10.3613C4.03046 10.2507 3.99385 10.1216 3.99611 9.99022C3.99838 9.85885 4.03941 9.73107 4.11406 9.62295C4.18871 9.51482 4.29364 9.43116 4.41568 9.38248C4.53772 9.3338 4.67143 9.32227 4.8 9.34933C5.82512 9.73556 6.90545 9.95522 8 10C9.09275 9.95466 10.1712 9.735 11.1947 9.34933C11.3233 9.32193 11.4572 9.33321 11.5795 9.38175C11.7018 9.4303 11.807 9.51393 11.8818 9.62213C11.9567 9.73033 11.9978 9.85825 12.0001 9.98979C12.0024 10.1213 11.9657 10.2506 11.8947 10.3613Z" fill="#8E8E8E"/>
</g>
<defs>
<clipPath id="clip0_8_362">
<rect width="16" height="16" fill="white"/>
</clipPath>
</defs>
</svg>
