<svg width="24" height="22" viewBox="0 0 24 22" fill="none" xmlns="http://www.w3.org/2000/svg">
<path d="M12.0005 20C18.6286 20 24.0005 15.6359 24.0005 10.25C24.0005 4.86406 18.6286 0.5 12.0005 0.5C5.37236 0.5 0.000482208 4.86406 0.000482208 10.25C0.000482208 12.3641 0.83017 14.3187 2.23642 15.9172C2.14736 17.0656 1.70204 18.0875 1.23329 18.8656C0.975482 19.2969 0.712982 19.6437 0.520795 19.8781C0.422357 19.9953 0.347357 20.0844 0.291107 20.1453C0.262982 20.1734 0.244232 20.1969 0.23017 20.2109L0.216107 20.225C0.000482209 20.4406 -0.0604553 20.7594 0.0567322 21.0406C0.17392 21.3219 0.445795 21.5047 0.750482 21.5047C2.09579 21.5047 3.45048 21.0875 4.57548 20.6C5.64892 20.1312 6.56298 19.5734 7.12079 19.1656C8.61142 19.7047 10.2614 20.0047 12.0005 20.0047V20ZM9.51142 7.2875C9.81611 7.18438 10.1536 7.29219 10.3505 7.55L12.0005 9.74844L13.6505 7.55C13.8427 7.29219 14.1802 7.18438 14.4895 7.2875C14.7989 7.39062 15.0005 7.67656 15.0005 8V12.5C15.0005 12.9125 14.663 13.25 14.2505 13.25C13.838 13.25 13.5005 12.9125 13.5005 12.5V10.25L12.6005 11.45C12.4599 11.6375 12.2349 11.75 12.0005 11.75C11.7661 11.75 11.5411 11.6375 11.4005 11.45L10.5005 10.25V12.5C10.5005 12.9125 10.163 13.25 9.75048 13.25C9.33798 13.25 9.00048 12.9125 9.00048 12.5V8C9.00048 7.67656 9.20673 7.39062 9.51142 7.2875ZM17.6255 9.06875V9.0875C17.6302 9.09219 17.6536 9.125 17.7286 9.16719C17.9114 9.275 18.1786 9.35938 18.5864 9.48594L18.6145 9.49531C18.9614 9.59844 19.4255 9.73906 19.7958 9.97344C20.2224 10.2406 20.6114 10.6859 20.6208 11.375C20.6302 12.0781 20.2645 12.5937 19.7864 12.8891C19.3411 13.1656 18.8067 13.2594 18.3474 13.2453C17.7755 13.2266 17.2364 13.0391 16.8192 12.8984C16.7536 12.875 16.6927 12.8563 16.6317 12.8328C16.238 12.7016 16.027 12.275 16.1583 11.8859C16.2895 11.4969 16.7161 11.2812 17.1052 11.4125C17.1849 11.4406 17.2599 11.4641 17.3349 11.4875C17.7614 11.6328 18.0661 11.7359 18.3942 11.7453C18.6427 11.7547 18.863 11.6984 18.9942 11.6141C19.0505 11.5766 19.0786 11.5438 19.0927 11.5203C19.102 11.5016 19.1208 11.4641 19.1208 11.3937V11.3844C19.1208 11.3516 19.1208 11.3188 18.9942 11.2391C18.8161 11.1266 18.5442 11.0375 18.1505 10.9156L18.0942 10.8969C17.7567 10.7937 17.3114 10.6625 16.9552 10.4469C16.5333 10.1937 16.1255 9.75781 16.1255 9.06875C16.1208 8.35625 16.5286 7.86406 16.9927 7.5875C17.4333 7.32969 17.9536 7.23594 18.3849 7.24063C18.8536 7.25 19.3083 7.34844 19.6927 7.44687C20.0911 7.55469 20.3302 7.9625 20.2224 8.36563C20.1145 8.76875 19.7067 9.00313 19.3036 8.89531C18.9614 8.80625 18.6427 8.74062 18.3614 8.73594C18.1317 8.73125 17.902 8.7875 17.7567 8.87188C17.6911 8.90938 17.6583 8.94688 17.6442 8.96563C17.6349 8.97969 17.6255 9.00313 17.6255 9.05469V9.06875ZM4.87548 9.06875V9.0875C4.88017 9.09219 4.90361 9.125 4.97861 9.16719C5.16142 9.275 5.42861 9.35938 5.83642 9.48594L5.86454 9.49531C6.21142 9.59844 6.67548 9.73906 7.04579 9.97344C7.47236 10.2406 7.86142 10.6859 7.87079 11.375C7.88017 12.0781 7.51454 12.5937 7.03642 12.8891C6.59111 13.1656 6.05673 13.2594 5.59736 13.2453C5.02079 13.2266 4.46298 13.0344 4.04111 12.8891C3.98017 12.8703 3.92392 12.8516 3.87236 12.8328C3.47861 12.7016 3.26767 12.275 3.39892 11.8859C3.53017 11.4969 3.95673 11.2812 4.34579 11.4125C4.41142 11.4359 4.47705 11.4547 4.53798 11.4781C4.98329 11.6281 5.31142 11.7406 5.64892 11.75C5.89736 11.7594 6.11767 11.7031 6.24892 11.6188C6.30517 11.5813 6.33329 11.5484 6.34736 11.525C6.35673 11.5063 6.37548 11.4688 6.37548 11.3984V11.3891C6.37548 11.3562 6.37548 11.3234 6.24892 11.2438C6.0708 11.1313 5.79892 11.0422 5.40517 10.9203L5.34892 10.9016C5.01142 10.7984 4.56611 10.6672 4.20986 10.4516C3.78798 10.2031 3.38017 9.76719 3.37548 9.07812C3.37079 8.36562 3.77861 7.87344 4.24267 7.59687C4.68329 7.33906 5.20361 7.24531 5.63486 7.25C6.08017 7.25469 6.67548 7.34844 7.09267 7.45625C7.49111 7.56406 7.73017 7.97188 7.62236 8.375C7.51454 8.77812 7.10673 9.0125 6.70361 8.90469C6.39423 8.82031 5.91611 8.75 5.61142 8.74531C5.38173 8.74062 5.15204 8.79688 5.00673 8.88125C4.94111 8.91875 4.90829 8.95625 4.89423 8.975C4.88486 8.98906 4.87548 9.0125 4.87548 9.06406V9.06875Z" fill="#D3CCF3"/>
</svg>
