<svg width="16" height="16" viewBox="0 0 16 16" fill="none" xmlns="http://www.w3.org/2000/svg">
<g clip-path="url(#clip0_8_268)">
<path d="M2.54867 9.50833C2.66399 9.65393 2.81259 9.76971 2.98197 9.84593C3.15134 9.92215 3.33655 9.95658 3.522 9.94633H4.10533C4.36326 9.94563 4.61042 9.84285 4.79281 9.66047C4.97519 9.47809 5.07796 9.23092 5.07867 8.973C5.07788 8.71513 4.97506 8.46805 4.79269 8.28574C4.61032 8.10343 4.3632 8.0007 4.10533 8H3.47333C3.21541 7.99929 2.96824 7.89652 2.78586 7.71414C2.60348 7.53175 2.5007 7.28459 2.5 7.02666C2.50079 6.76879 2.6036 6.52172 2.78598 6.33941C2.96835 6.15709 3.21546 6.05437 3.47333 6.05366H4.057C4.24358 6.03248 4.43241 6.06199 4.60364 6.13907C4.77487 6.21614 4.92215 6.33795 5.03 6.49166M6.03733 9.94633V6.05333L7.98333 9.94666L9.92933 6.054V9.94666M10.97 9.50833C11.0853 9.65393 11.2339 9.76971 11.4033 9.84593C11.5727 9.92215 11.7579 9.95658 11.9433 9.94633H12.5267C12.7846 9.94563 13.0318 9.84285 13.2141 9.66047C13.3965 9.47809 13.4993 9.23092 13.5 8.973C13.4992 8.71513 13.3964 8.46805 13.214 8.28574C13.0316 8.10343 12.7845 8.0007 12.5267 8H11.8943C11.6364 7.99929 11.3892 7.89652 11.2069 7.71414C11.0245 7.53175 10.9217 7.28459 10.921 7.02666C10.9218 6.76879 11.0246 6.52172 11.207 6.33941C11.3894 6.15709 11.6365 6.05437 11.8943 6.05366H12.4783C12.6649 6.03248 12.8537 6.06199 13.025 6.13907C13.1962 6.21614 13.3435 6.33795 13.4513 6.49166" stroke="#2101C4" stroke-linecap="round" stroke-linejoin="round"/>
<path d="M7.99967 15.1666C11.9577 15.1666 15.1663 11.958 15.1663 7.99998C15.1663 4.04194 11.9577 0.833313 7.99967 0.833313C4.04163 0.833313 0.833008 4.04194 0.833008 7.99998C0.833008 11.958 4.04163 15.1666 7.99967 15.1666Z" stroke="#2101C4" stroke-linecap="round" stroke-linejoin="round"/>
</g>
<defs>
<clipPath id="clip0_8_268">
<rect width="16" height="16" fill="white"/>
</clipPath>
</defs>
</svg>
